<?xml version="1.0" encoding="UTF-8"?>
<svg id="Layer_1" data-name="Layer 1" xmlns="http://www.w3.org/2000/svg" viewBox="0 0 473.14 358.94">
  <defs>
    <style>
      .cls-1 {
        fill: #f4f4f4;
      }
    </style>
  </defs>
  <g>
    <polygon class="cls-1" points="327.87 277.7 300.1 277.7 272.33 277.7 272.33 277.7 244.56 277.7 216.79 277.7 216.79 277.7 189.02 277.7 161.25 277.7 161.25 305.47 189.02 305.47 216.79 305.47 216.79 305.47 244.56 305.47 272.33 305.47 272.33 305.47 300.1 305.47 327.87 305.47 327.87 305.47 355.64 305.47 355.64 277.7 327.87 277.7 327.87 277.7"/>
    <polygon class="cls-1" points="355.64 55.54 355.64 83.31 327.87 83.31 327.87 83.31 300.1 83.31 300.1 55.54 300.1 27.77 327.87 27.77 327.87 55.54 355.64 55.54 355.64 27.77 327.87 27.77 327.87 0 300.1 0 272.33 0 272.33 0 244.56 0 216.79 0 216.79 0 189.02 0 161.25 0 161.25 27.77 133.48 27.77 133.48 55.54 133.48 83.31 133.48 111.08 133.48 111.08 133.48 138.85 133.48 166.62 133.48 166.62 133.48 194.39 133.48 222.16 133.48 222.16 133.48 249.93 133.48 277.7 161.25 277.7 161.25 249.93 161.25 222.16 161.25 222.16 161.25 194.39 161.25 166.62 161.25 166.62 161.25 138.85 161.25 111.08 161.25 111.08 161.25 83.31 161.25 55.54 161.25 27.77 189.02 27.77 216.79 27.77 216.79 27.77 244.56 27.77 272.33 27.77 272.33 55.54 272.33 83.31 272.33 111.08 300.1 111.08 327.87 111.08 327.87 111.08 355.64 111.08 355.64 138.85 355.64 166.62 355.64 166.62 355.64 194.39 355.64 222.16 355.64 222.16 355.64 249.93 355.64 277.7 383.41 277.7 383.41 249.93 383.41 222.16 383.41 222.16 383.41 194.39 383.41 166.62 383.41 166.62 383.41 138.85 383.41 111.08 383.41 111.08 383.41 83.31 383.41 55.54 355.64 55.54"/>
  </g>
  <rect class="cls-1" x="111.06" y="330.95" width="210.75" height="27.99"/>
  <polygon class="cls-1" points="83.29 69.64 83.29 236.18 83.29 277.7 83.29 330.95 111.06 330.95 111.06 277.7 111.06 236.18 111.06 69.64 83.29 69.64"/>
</svg>