<?xml version="1.0" encoding="UTF-8"?>
<svg id="Layer_1" data-name="Layer 1" xmlns="http://www.w3.org/2000/svg" viewBox="0 0 473.14 358.94">
  <defs>
    <style>
      .cls-1 {
        fill: #f4f4f4;
      }
    </style>
  </defs>
  <polygon class="cls-1" points="318.15 326.31 285.52 326.31 252.89 326.31 252.89 326.31 220.26 326.31 187.63 326.31 187.63 326.31 155 326.31 122.36 326.31 122.36 358.94 155 358.94 187.63 358.94 187.63 358.94 220.26 358.94 252.89 358.94 252.89 358.94 285.52 358.94 318.15 358.94 318.15 358.94 350.78 358.94 350.78 326.31 318.15 326.31 318.15 326.31"/>
  <polygon class="cls-1" points="350.78 65.26 350.78 97.89 318.15 97.89 318.15 97.89 285.52 97.89 285.52 65.26 285.52 32.63 318.15 32.63 318.15 65.26 350.78 65.26 350.78 32.63 318.15 32.63 318.15 0 285.52 0 252.89 0 252.89 0 220.26 0 187.63 0 187.63 0 155 0 122.36 0 122.36 32.63 89.73 32.63 89.73 65.26 89.73 97.89 89.73 130.52 89.73 130.52 89.73 163.15 89.73 195.78 89.73 195.78 89.73 228.41 89.73 261.04 89.73 261.04 89.73 293.68 89.73 326.31 122.36 326.31 122.36 293.68 122.36 261.04 122.36 261.04 122.36 228.41 122.36 195.78 122.36 195.78 122.36 163.15 122.36 130.52 122.36 130.52 122.36 97.89 122.36 65.26 122.36 32.63 155 32.63 187.63 32.63 187.63 32.63 220.26 32.63 252.89 32.63 252.89 65.26 252.89 97.89 252.89 130.52 285.52 130.52 318.15 130.52 318.15 130.52 350.78 130.52 350.78 163.15 350.78 195.78 350.78 195.78 350.78 228.41 350.78 261.04 350.78 261.04 350.78 293.68 350.78 326.31 383.41 326.31 383.41 293.68 383.41 261.04 383.41 261.04 383.41 228.41 383.41 195.78 383.41 195.78 383.41 163.15 383.41 130.52 383.41 130.52 383.41 97.89 383.41 65.26 350.78 65.26"/>
  <polygon class="cls-1" points="283.67 163.15 251.04 163.15 218.42 163.15 218.41 163.15 185.78 163.15 153.15 163.15 153.15 195.78 185.78 195.78 218.41 195.78 218.42 195.78 251.04 195.78 283.67 195.78 283.68 195.78 316.31 195.78 316.31 163.15 283.68 163.15 283.67 163.15"/>
  <polygon class="cls-1" points="283.67 228.41 251.04 228.41 218.42 228.41 218.41 228.41 185.78 228.41 153.15 228.41 153.15 261.04 185.78 261.04 218.41 261.04 218.42 261.04 251.04 261.04 283.67 261.04 283.68 261.04 316.31 261.04 316.31 228.41 283.68 228.41 283.67 228.41"/>
</svg>