<?xml version="1.0" encoding="UTF-8"?>
<svg id="Layer_1" data-name="Layer 1" xmlns="http://www.w3.org/2000/svg" viewBox="0 0 473.14 358.94">
  <defs>
    <style>
      .cls-1 {
        fill: #f4f4f4;
      }
    </style>
  </defs>
  <polygon class="cls-1" points="407.88 326.31 375.25 326.31 375.25 326.31 342.62 326.31 342.62 326.31 309.99 326.31 277.36 326.31 244.73 326.31 244.73 326.31 212.1 326.31 97.89 326.31 97.89 326.31 65.26 326.31 65.26 358.94 97.89 358.94 97.89 358.94 212.1 358.94 244.73 358.94 244.73 358.94 277.36 358.94 309.99 358.94 342.62 358.94 342.62 358.94 375.25 358.94 375.25 358.94 407.88 358.94 407.88 358.94 440.51 358.94 440.51 326.31 407.88 326.31 407.88 326.31"/>
  <polygon class="cls-1" points="440.51 97.89 440.51 65.26 407.88 65.26 407.88 65.26 375.25 65.26 375.25 65.26 342.62 65.26 342.62 65.26 309.99 65.26 309.99 97.89 342.62 97.89 342.62 97.89 375.25 97.89 375.25 97.89 407.88 97.89 407.88 97.89 440.51 97.89 440.51 130.52 440.51 163.15 440.51 163.15 440.51 195.78 440.51 228.41 440.51 228.41 440.51 261.05 440.51 293.67 440.51 293.68 440.51 326.31 473.14 326.31 473.14 293.68 473.14 293.67 473.14 261.05 473.14 228.41 473.14 228.41 473.14 195.78 473.14 163.15 473.14 163.15 473.14 130.52 473.14 97.89 440.51 97.89"/>
  <polygon class="cls-1" points="65.26 32.63 97.89 32.63 212.1 32.63 212.1 32.63 244.73 32.63 244.73 0 212.1 0 212.1 0 97.89 0 65.26 0 65.26 0 32.63 0 32.63 32.63 65.26 32.63 65.26 32.63"/>
  <rect class="cls-1" x="32.63" y="326.31" width="32.63" height="32.63"/>
  <polygon class="cls-1" points="212.1 97.89 212.1 97.89 244.73 97.89 277.36 97.89 309.99 97.89 309.99 65.26 277.36 65.26 277.36 32.63 244.73 32.63 244.73 65.26 212.1 65.26 212.1 65.26 97.89 65.26 65.26 65.26 65.26 65.26 32.63 65.26 32.63 32.63 0 32.63 0 65.26 0 65.26 0 97.89 0 97.89 0 130.52 0 163.15 0 163.15 0 195.78 0 228.41 0 228.41 0 261.05 0 293.67 0 293.68 0 326.31 32.63 326.31 32.63 293.68 32.63 293.67 32.63 261.05 32.63 228.41 32.63 228.41 32.63 195.78 32.63 163.15 32.63 163.15 32.63 130.52 32.63 97.89 65.26 97.89 65.26 97.89 97.89 97.89 212.1 97.89"/>
</svg>