<?xml version="1.0" encoding="UTF-8"?>
<svg id="Layer_1" data-name="Layer 1" xmlns="http://www.w3.org/2000/svg" viewBox="0 0 729.04 667.6">
  <defs>
    <style>
      .cls-1 {
        fill: #f4f4f4;
      }
    </style>
  </defs>
  <path class="cls-1" d="M255.28,52.56h42.05v159.92c-29.54-39.54-70.83-59.31-123.88-59.31-35.55,0-66.33,8.39-92.35,25.15-26.03,16.78-46.06,40.67-60.06,71.7C7,281.06,0,317.85,0,360.39c0,60.06,15.64,107.62,46.93,142.65,31.28,35.04,73.45,52.56,126.51,52.56,26.52,0,50.3-4.88,71.33-14.64,21.02-9.76,38.54-23.39,52.56-40.92v45.8h56.31V0h-98.36v52.56ZM264.29,465.5c-22.03,26.03-51.81,39.04-89.35,39.04-.43,0-.86-.01-1.29-.01,20.86-7.54,35.77-27.52,35.77-50.99h0c0-29.94-24.27-54.21-54.21-54.21h0c-29.94,0-54.21,24.27-54.21,54.21h0c0,13.14,4.68,25.18,12.45,34.56-9.36-5.93-17.77-13.46-25.24-22.61-21.28-26.02-31.91-61.06-31.91-105.11,0-48.05,10.63-86.09,31.91-114.12,21.27-28.03,50.18-42.05,86.72-42.05s67.32,14.02,89.35,42.05c22.02,28.04,33.04,66.07,33.04,114.12,0,44.05-11.02,79.09-33.04,105.11Z"/>
  <path class="cls-1" d="M630.68,0v52.56h42.05v159.92c-29.54-39.54-70.83-59.31-123.88-59.31-35.55,0-66.33,8.39-92.35,25.15-26.03,16.78-46.06,40.67-60.06,71.7-14.02,31.04-21.02,67.83-21.02,110.37,0,60.06,15.64,107.62,46.93,142.65,31.28,35.04,73.45,52.56,126.51,52.56,26.52,0,50.3-4.88,71.33-14.64,21.02-9.76,38.54-23.39,52.56-40.92v45.8h56.31V0h-98.36ZM639.69,465.5c-21.41,25.3-50.14,38.3-86.2,39.01,20.83-7.56,35.71-27.52,35.71-50.97h0c0-29.94-24.27-54.21-54.21-54.21h0c-29.94,0-54.21,24.27-54.21,54.21h0c0,15.74,6.71,29.9,17.42,39.8-13.17-6.47-24.7-15.75-34.58-27.84-21.28-26.02-31.91-61.06-31.91-105.11,0-48.05,10.63-86.09,31.91-114.12,21.27-28.03,50.18-42.05,86.72-42.05s67.32,14.02,89.35,42.05c22.02,28.04,33.04,66.07,33.04,114.12,0,44.05-11.02,79.09-33.04,105.11Z"/>
</svg>