<?xml version="1.0" encoding="UTF-8"?>
<svg id="Layer_1" data-name="Layer 1" xmlns="http://www.w3.org/2000/svg" viewBox="0 0 729.04 667.6">
  <defs>
    <style>
      .cls-1 {
        fill: #ff0;
      }
    </style>
  </defs>
  <path class="cls-1" d="M710.41,266.38c-12.24-18.88-28.94-33.6-50.08-44.16-21.14-10.57-45.59-15.75-73.32-15.56-2.5.02-4.97.1-7.43.2,1.29-2.09,2.56-4.21,3.8-6.39,13.7-24.11,21.18-47.94,22.43-71.46,1.25-23.52-3.23-45.14-13.42-64.87-10.2-19.73-25.83-35.57-46.89-47.54C524.13,4.47,502.21-1.01,479.74.15c-22.47,1.17-43.57,8.26-63.28,21.29-19.72,13.02-36.43,31.6-50.13,55.72-1.24,2.18-2.4,4.35-3.54,6.53-1.17-2.16-2.37-4.32-3.63-6.48-14.03-23.92-30.93-42.31-50.67-55.15-19.74-12.84-40.71-19.78-62.89-20.81-22.19-1.03-43.72,4.58-64.62,16.84-21.2,12.44-36.91,28.68-47.14,48.72-10.22,20.04-14.63,41.86-13.2,65.45,1.42,23.59,9.15,47.35,23.19,71.27,1.27,2.16,2.57,4.26,3.89,6.33-2.45-.07-4.93-.11-7.43-.09-27.73.19-52.1,5.63-73.1,16.31-20.99,10.68-37.48,25.37-49.47,44.06C5.74,288.82-.16,310.28,0,334.5c.17,24.58,6.38,46.31,18.62,65.18,12.24,18.88,28.94,33.6,50.08,44.16,21.14,10.57,45.59,15.75,73.32,15.56,2.5-.02,4.97-.1,7.43-.2-1.29,2.09-2.56,4.21-3.8,6.39-13.7,24.11-21.18,47.94-22.43,71.46-1.25,23.52,3.23,45.14,13.42,64.87,10.2,19.73,25.83,35.57,46.89,47.54,21.37,12.14,43.29,17.63,65.76,16.46,22.47-1.17,43.57-8.26,63.28-21.29,19.72-13.02,36.43-31.6,50.13-55.72,1.24-2.18,2.4-4.36,3.54-6.53,1.17,2.16,2.37,4.32,3.64,6.48,14.03,23.92,30.93,42.31,50.67,55.15,19.74,12.84,40.71,19.78,62.89,20.81,22.19,1.03,43.72-4.58,64.62-16.84,21.2-12.44,36.91-28.68,47.14-48.72,10.22-20.04,14.63-41.86,13.2-65.45-1.42-23.59-9.15-47.35-23.19-71.27-1.27-2.16-2.57-4.26-3.89-6.33,2.45.07,4.93.11,7.43.09,27.73-.19,52.1-5.63,73.1-16.31,20.99-10.68,37.48-25.37,49.47-44.06,11.98-18.7,17.89-40.15,17.72-64.38-.17-24.58-6.38-46.31-18.62-65.18ZM384.31,168.87c1.15-17.31,6.6-54.32,16.36-72.2,9.75-17.88,21.62-31.83,35.6-41.86,13.97-10.03,28.9-15.68,44.77-16.96,15.87-1.28,31.28,2.33,46.25,10.83,14.35,8.15,24.81,19.24,31.37,33.27,6.57,14.03,9.12,29.62,7.66,46.75-1.47,17.14-7.22,34.57-17.28,52.27-10.06,17.71-22.01,31.62-35.83,41.73-8.98,6.57-18.24,11.35-27.76,14.37-25.22-29.3-60.89-49.36-101.15-54.36-.31-4.5-.31-9.11,0-13.84ZM364.52,454.25c-62.41,0-113.19-50.78-113.19-113.19s50.78-113.19,113.19-113.19,113.19,50.78,113.19,113.19-50.78,113.19-113.19,113.19ZM167.14,84.52c6.83-14.38,17.66-25.93,32.5-34.64,14.23-8.35,29.07-11.86,44.5-10.53,15.43,1.33,30.21,6.91,44.32,16.74,14.11,9.84,26.33,23.54,36.63,41.1,10.31,17.57,16.38,54.28,18.23,71.3.53,4.9.72,9.67.59,14.31-42.37,5.49-79.58,27.65-104.81,59.68,1.18-1.89,2.38-3.75,3.62-5.57-9.4-2.66-18.49-6.92-27.28-12.82-14.42-9.65-26.93-23.17-37.54-40.57-10.61-17.38-16.76-34.64-18.46-51.76-1.7-17.11.87-32.87,7.69-47.26ZM141.75,419.9c-20.36.49-38.38-2.8-54.05-9.9-15.67-7.08-28.03-17.19-37.08-30.29-9.04-13.1-13.63-28.26-13.75-45.46-.11-16.5,4.26-31.1,13.13-43.81,8.87-12.7,21.09-22.7,36.66-30.01,15.58-7.3,33.55-11.03,53.91-11.17,20.37-.14,38.39,3.25,54.06,10.16,9.45,4.17,17.69,9.32,24.73,15.42-9.24,20.18-14.4,42.61-14.4,66.22,0,19.16,3.4,37.54,9.61,54.57-5.63,4.59-11.93,8.61-18.91,12.05-15.57,7.66-33.54,11.74-53.9,12.22ZM328.36,569.39c-9.75,17.88-21.62,31.83-35.6,41.86-13.97,10.03-28.9,15.68-44.77,16.97-15.87,1.28-31.28-2.33-46.25-10.83-14.35-8.15-24.81-19.24-31.37-33.27-6.57-14.03-9.12-29.62-7.66-46.75,1.47-17.14,7.22-34.57,17.28-52.27,10.06-17.71,22.01-31.62,35.83-41.73,5.91-4.32,11.93-7.87,18.07-10.66-.07-.14-.14-.27-.22-.41,25.27,36.13,65.09,61.35,110.89,67.09-1.43,18.08-6.83,52.84-16.2,70ZM561.9,581.54c-6.83,14.38-17.66,25.93-32.5,34.64-14.23,8.35-29.07,11.86-44.5,10.53-15.43-1.33-30.21-6.91-44.32-16.74-14.11-9.84-26.33-23.54-36.63-41.1-9.99-17.03-16-52.03-18.05-69.67,45.22-6.08,84.49-31.17,109.49-66.94,6.21,2.5,12.28,5.73,18.21,9.7,14.42,9.65,26.93,23.17,37.54,40.57,10.61,17.38,16.76,34.64,18.46,51.76,1.7,17.11-.87,32.87-7.69,47.26ZM679.04,375.62c-8.87,12.7-21.09,22.7-36.66,30.01-15.58,7.3-33.55,11.03-53.91,11.17-20.37.14-38.39-3.25-54.06-10.16-7.33-3.23-13.91-7.06-19.78-11.46,6.12-16.91,9.46-35.13,9.46-54.13,0-23.67-5.19-46.14-14.47-66.36,6.79-6.41,14.7-11.85,23.77-16.31,15.57-7.66,33.54-11.74,53.9-12.22,20.36-.49,38.38,2.8,54.05,9.9,15.67,7.08,28.03,17.19,37.08,30.29,9.04,13.1,13.63,28.26,13.75,45.46.11,16.5-4.26,31.1-13.13,43.81Z"/>
</svg>